<?xml version="1.0" standalone="no"?>
<!DOCTYPE svg PUBLIC "-//W3C//DTD SVG 20010904//EN"
 "http://www.w3.org/TR/2001/REC-SVG-20010904/DTD/svg10.dtd">
<svg version="1.0" xmlns="http://www.w3.org/2000/svg"
 width="837.000000pt" height="543.000000pt" viewBox="0 0 837.000000 543.000000"
 preserveAspectRatio="xMidYMid meet">

<g transform="translate(0.000000,543.000000) scale(0.100000,-0.100000)"
fill="#000000" stroke="none">
<path d="M0 2715 l0 -2715 4185 0 4185 0 0 2715 0 2715 -4185 0 -4185 0 0
-2715z m3996 1283 c34 -14 87 -45 119 -68 57 -42 57 -42 78 -23 100 90 254 98
351 20 l30 -24 43 29 c139 94 321 47 399 -103 35 -70 27 -198 -17 -261 -18
-25 -26 -28 -79 -28 l-58 0 -26 45 c-45 77 -99 84 -138 19 -25 -42 -33 -34
-43 39 -8 58 -33 87 -75 87 -38 0 -59 -23 -94 -109 l-30 -71 -52 0 c-77 0
-109 -41 -79 -100 l16 -32 108 4 108 3 12 -55 c22 -109 30 -127 60 -139 51
-22 76 0 112 96 28 75 35 84 53 79 12 -3 29 -6 39 -6 9 0 17 -5 17 -10 0 -14
-165 -214 -196 -239 -40 -31 -87 -36 -128 -15 -19 11 -82 76 -140 146 l-105
128 -31 -64 c-144 -303 -549 -367 -778 -122 -117 126 -159 287 -117 451 42
160 174 295 334 341 75 22 233 12 307 -18z m613 -315 c5 -10 18 -65 30 -122
20 -99 27 -120 34 -110 2 2 16 39 31 81 16 43 35 79 44 83 18 7 44 -19 74 -74
l17 -31 105 0 c82 0 108 -3 120 -16 9 -8 16 -19 16 -24 0 -5 -7 -16 -16 -24
-12 -13 -40 -16 -135 -16 -115 0 -121 1 -143 25 -21 23 -24 23 -29 8 -18 -62
-70 -190 -81 -201 -26 -26 -53 2 -66 65 -6 32 -18 92 -27 133 l-16 75 -15 -35
c-8 -19 -19 -38 -26 -42 -6 -4 -46 -8 -88 -8 -64 0 -79 3 -87 18 -18 34 4 52
68 52 l57 0 41 90 c33 71 46 90 62 90 11 0 24 -8 30 -17z m-2569 -993 c52 -58
127 -141 165 -185 39 -44 72 -82 75 -85 3 -3 34 -38 69 -78 36 -40 67 -71 71
-70 7 3 138 149 374 416 54 62 100 112 102 112 2 0 4 -211 4 -470 l0 -470
-100 0 -100 0 -2 215 -3 214 -130 -152 c-72 -84 -138 -152 -146 -152 -8 0 -57
50 -109 110 -51 61 -110 127 -129 148 l-36 38 -5 -208 -5 -208 -102 -3 -103
-3 0 471 c0 260 3 470 8 468 4 -1 50 -50 102 -108z m1631 54 c128 -61 192
-159 192 -294 0 -127 -57 -225 -161 -279 -52 -28 -124 -41 -249 -48 l-132 -6
-3 -126 -3 -126 -97 -3 -98 -3 0 462 0 461 243 -4 242 -3 66 -31z m703 -189
c32 -9 70 -24 83 -35 34 -26 43 -25 43 5 0 25 0 25 95 25 l95 0 0 -345 0 -345
-95 0 c-95 0 -95 0 -95 25 0 31 -2 31 -48 0 -73 -48 -211 -56 -302 -19 -139
58 -220 203 -207 372 6 77 43 171 89 223 38 43 106 82 167 95 77 17 107 17
175 -1z m984 -23 c41 -21 42 -21 42 -2 0 19 7 20 95 20 l96 0 -3 -367 c-3
-364 -3 -368 -27 -413 -70 -135 -217 -197 -405 -171 -100 14 -246 75 -246 102
0 8 58 96 81 122 3 5 35 -6 70 -24 82 -41 202 -52 258 -22 44 23 70 58 77 105
l6 37 -58 -24 c-109 -45 -261 -29 -358 37 -108 74 -162 210 -137 346 20 106
68 180 151 231 70 43 103 51 215 48 81 -2 108 -7 143 -25z m936 -7 c124 -62
201 -195 194 -331 l-3 -59 -272 -3 c-303 -3 -299 -2 -243 -65 60 -69 202 -77
287 -18 l47 34 41 -22 c22 -12 55 -30 74 -42 l34 -20 -48 -49 c-144 -147 -416
-147 -562 0 -53 52 -79 107 -92 190 -25 159 42 305 171 371 78 40 119 49 218
46 83 -2 104 -6 154 -32z m-3909 -1114 c14 -28 21 -53 16 -56 -5 -3 -12 -1
-16 5 -3 5 -17 10 -30 10 -13 0 -27 -5 -30 -10 -4 -6 -11 -8 -16 -5 -8 6 35
105 46 105 3 0 16 -22 30 -49z m166 39 c27 -15 24 -49 -6 -60 -14 -5 -25 -17
-25 -26 0 -27 -25 -9 -28 20 -8 65 14 90 59 66z m167 -2 c20 -20 14 -48 -13
-58 -14 -5 -25 -14 -25 -20 0 -5 -4 -10 -10 -10 -11 0 -14 83 -3 93 10 11 38
8 51 -5z m124 -38 c2 -28 8 -36 26 -38 31 -5 17 -22 -19 -22 -29 0 -29 1 -29
57 0 62 16 64 22 3z m322 44 c26 -10 18 -25 -10 -22 -34 4 -54 -23 -34 -47 9
-11 22 -14 38 -10 17 4 23 2 20 -7 -6 -17 -42 -22 -67 -8 -26 13 -28 56 -4 82
17 19 31 22 57 12z m350 -3 c3 -5 -1 -11 -9 -15 -9 -3 -15 -19 -15 -40 0 -19
-4 -38 -10 -41 -6 -4 -10 10 -10 35 0 27 -5 43 -15 46 -23 9 -7 24 25 24 16 0
31 -4 34 -9z m114 -59 c-2 -20 -7 -37 -13 -37 -13 0 -19 49 -10 84 6 23 8 24
16 8 6 -9 9 -34 7 -55z m182 48 c24 -24 25 -38 4 -68 -17 -24 -62 -30 -82 -10
-17 17 -15 64 4 82 21 22 50 20 74 -4z m170 -13 c0 31 18 38 25 10 9 -36 2
-82 -13 -82 -7 0 -21 14 -32 30 l-20 30 0 -27 c0 -15 -4 -30 -10 -33 -11 -7
-14 87 -3 99 4 3 17 -6 30 -21 21 -27 22 -27 23 -6z m294 20 c23 -17 14 -53
-15 -62 -10 -4 -19 -11 -19 -16 0 -5 -7 -9 -15 -9 -11 0 -15 11 -15 43 0 24 3
47 7 50 10 11 38 8 57 -6z m126 -44 c0 -26 4 -33 20 -33 11 0 20 -4 20 -10 0
-5 -13 -10 -30 -10 -30 0 -30 0 -30 58 0 40 3 53 10 42 5 -8 10 -30 10 -47z
m230 -42 c0 -12 -3 -12 -12 -3 -7 7 -24 12 -38 12 -14 0 -31 -5 -38 -12 -9 -9
-12 -9 -12 0 0 16 33 86 45 94 10 7 54 -65 55 -91z m140 90 c0 -6 -4 -13 -10
-16 -5 -3 -10 -21 -10 -40 0 -19 -4 -37 -10 -40 -6 -4 -10 10 -10 35 0 27 -5
43 -15 46 -8 4 -12 10 -9 15 7 12 64 12 64 0z m160 -1 c0 -5 -9 -10 -20 -10
-11 0 -20 -4 -20 -10 0 -5 9 -10 20 -10 25 0 26 -20 1 -27 -11 -3 -22 -14 -24
-25 -9 -34 -27 -10 -27 36 0 23 3 46 7 49 10 11 63 8 63 -3z m184 -12 c20 -29
20 -47 -1 -70 -32 -35 -93 -13 -93 34 0 52 66 77 94 36z m162 14 c6 -4 11 -29
11 -57 1 -48 0 -49 -14 -27 -19 28 -33 28 -33 1 0 -11 -4 -17 -10 -14 -11 7
-14 88 -3 98 8 9 35 9 49 -1z m147 -14 l16 -23 16 23 c9 12 21 20 26 17 12 -8
12 -92 -1 -100 -6 -4 -10 5 -10 21 0 26 -1 27 -20 9 -19 -17 -20 -17 -27 1 -6
17 -8 17 -13 -4 -8 -37 -25 -30 -28 12 -6 66 12 85 41 44z m349 5 c22 -19 24
-66 4 -82 -8 -7 -27 -11 -43 -9 -25 3 -28 8 -31 42 -2 21 -1 44 2 52 7 19 45
18 68 -3z m178 7 c0 -5 -9 -10 -19 -10 -11 0 -23 -4 -26 -10 -4 -6 5 -10 20
-10 32 0 29 -23 -3 -28 -30 -5 -28 -22 3 -22 14 0 25 -5 25 -11 0 -6 -14 -9
-32 -7 -30 3 -33 6 -36 42 -2 21 -1 44 2 52 6 16 66 19 66 4z m121 -28 l11
-27 17 34 c10 19 21 29 25 23 7 -12 -29 -102 -42 -102 -10 0 -42 76 -42 98 0
20 20 3 31 -26z m-3071 -17 c0 -25 -4 -45 -10 -45 -5 0 -10 20 -10 45 0 25 5
45 10 45 6 0 10 -20 10 -45z m350 8 c8 -21 16 -41 18 -45 2 -4 -13 -4 -32 -1
-22 3 -42 1 -51 -7 -22 -18 -19 2 5 50 25 50 42 50 60 3z"/>
<path d="M3714 3951 c-164 -47 -274 -170 -304 -339 -32 -175 70 -358 242 -437
112 -51 267 -43 374 20 90 53 175 164 189 246 6 33 1 44 -39 98 -56 77 -74
147 -57 230 11 53 10 56 -16 84 -60 62 -199 118 -289 116 -22 0 -66 -8 -100
-18z m166 -256 l0 -75 69 0 c82 0 93 -9 89 -77 l-3 -48 -77 -3 -77 -3 -3 -77
-3 -77 -55 0 -55 0 -5 75 -5 75 -75 5 -75 5 -3 54 c-2 37 1 57 10 62 7 5 43 9
81 9 l67 0 0 75 0 75 60 0 60 0 0 -75z"/>
<path d="M3327 2603 c-4 -3 -7 -73 -7 -155 l0 -148 118 0 c136 0 176 14 204
70 49 96 0 206 -102 229 -50 12 -203 15 -213 4z"/>
<path d="M4247 2386 c-76 -28 -117 -91 -117 -181 0 -125 89 -206 211 -192 66
8 105 30 135 78 39 63 43 135 11 201 -16 31 -41 63 -61 76 -43 29 -126 38
-179 18z"/>
<path d="M5145 2388 c-95 -33 -141 -155 -96 -254 42 -93 158 -131 256 -84 138
67 138 269 1 331 -45 20 -114 23 -161 7z"/>
<path d="M6020 2372 c-32 -18 -80 -73 -80 -93 0 -5 77 -9 170 -9 194 0 197 2
131 73 -38 41 -41 42 -113 45 -57 2 -80 -1 -108 -16z"/>
<path d="M2351 1404 c0 -11 3 -14 6 -6 3 7 2 16 -1 19 -3 4 -6 -2 -5 -13z"/>
<path d="M2520 1420 c0 -13 5 -20 13 -17 6 2 12 10 12 17 0 7 -6 15 -12 18 -8
2 -13 -5 -13 -18z"/>
<path d="M2680 1420 c0 -13 5 -20 13 -17 6 2 12 10 12 17 0 7 -6 15 -12 18 -8
2 -13 -5 -13 -18z"/>
<path d="M3753 1433 c-18 -7 -16 -50 3 -57 25 -10 33 -7 44 13 7 15 6 23 -6
35 -16 17 -21 18 -41 9z"/>
<path d="M4240 1419 c0 -11 5 -17 10 -14 6 3 10 13 10 21 0 8 -4 14 -10 14 -5
0 -10 -9 -10 -21z"/>
<path d="M4576 1411 c-4 -7 -5 -15 -2 -18 9 -9 19 4 14 18 -4 11 -6 11 -12 0z"/>
<path d="M5055 1426 c-20 -15 -15 -43 10 -52 18 -7 45 12 45 32 0 22 -35 35
-55 20z"/>
<path d="M5240 1425 c0 -9 5 -15 11 -13 6 2 11 8 11 13 0 5 -5 11 -11 13 -6 2
-11 -4 -11 -13z"/>
<path d="M5720 1405 c0 -35 5 -40 34 -29 34 13 14 64 -25 64 -5 0 -9 -16 -9
-35z"/>
<path d="M3310 1400 c0 -5 5 -10 10 -10 6 0 10 5 10 10 0 6 -4 10 -10 10 -5 0
-10 -4 -10 -10z"/>
</g>
</svg>
