<?xml version="1.0" encoding="UTF-8"?>
<svg xmlns="http://www.w3.org/2000/svg" xmlns:xlink="http://www.w3.org/1999/xlink" viewBox="0 0 96 96" width="96px" height="96px">
<g id="surface79124256">
<rect x="0" y="0" width="96" height="96" style="fill:rgb(89.803922%,89.803922%,89.803922%);fill-opacity:1;stroke:none;"/>
<path style=" stroke:none;fill-rule:nonzero;fill:rgb(42.352942%,9.803922%,100%);fill-opacity:1;" d="M 88 40 L 88 59.496094 C 88 66.066406 82.9375 71.796875 76.367188 71.996094 C 69.570312 72.199219 64 66.75 64 60 L 70.21875 40 Z M 76 32 C 80.417969 32 84 28.417969 84 24 C 84 19.582031 80.417969 16 76 16 C 71.582031 16 68 19.582031 68 24 C 68 28.417969 71.582031 32 76 32 Z M 76 32 "/>
<path style=" stroke:none;fill-rule:nonzero;fill:rgb(65.098041%,29.019609%,100%);fill-opacity:1;" d="M 69.757812 70.25 C 67.675781 79.667969 58.84375 86.617188 48.671875 85.957031 C 38.039062 85.269531 30 75.964844 30 65.3125 L 30 40 L 64 40 C 64 40 70.058594 68.878906 69.757812 70.25 Z M 50 34 C 56.628906 34 62 28.628906 62 22 C 62 15.371094 56.628906 10 50 10 C 43.371094 10 38 15.371094 38 22 C 38 28.628906 43.371094 34 50 34 Z M 50 34 "/>
<path style=" stroke:none;fill-rule:nonzero;fill:rgb(42.352942%,9.803922%,100%);fill-opacity:1;" d="M 30.179688 68 L 8 68 L 8 28 L 39.617188 28 L 48 33.820312 L 48 40 Z M 30.179688 68 "/>
<path style=" stroke:none;fill-rule:nonzero;fill:rgb(12.941177%,0%,76.862746%);fill-opacity:1;" d="M 39.617188 28 C 41.359375 31.039062 44.417969 33.21875 47.996094 33.820312 L 47.996094 28 Z M 29.996094 40 L 29.996094 65.320312 C 29.996094 66.21875 30.058594 67.121094 30.179688 68 L 47.996094 68 L 47.996094 40 Z M 29.996094 40 "/>
<path style=" stroke:none;fill-rule:nonzero;fill:rgb(86.666667%,72.941178%,100%);fill-opacity:1;" d="M 36.136719 37.996094 L 19.863281 37.996094 L 19.863281 41.4375 L 25.957031 41.4375 L 25.957031 57.996094 L 30.042969 57.996094 L 30.042969 41.4375 L 36.136719 41.4375 Z M 36.136719 37.996094 "/>
<path style=" stroke:none;fill-rule:nonzero;fill:rgb(12.941177%,0%,76.862746%);fill-opacity:1;" d="M 75.996094 16 C 71.578125 16 67.996094 19.578125 67.996094 24 C 67.996094 28.421875 71.578125 32 75.996094 32 C 80.417969 32 83.996094 28.421875 83.996094 24 C 83.996094 19.578125 80.417969 16 75.996094 16 Z M 63.996094 40 L 63.996094 60 C 63.996094 64.339844 66.296875 68.140625 69.757812 70.238281 C 70.058594 68.878906 70.21875 67.460938 70.21875 66 L 70.21875 40 Z M 63.996094 40 "/>
</g>
</svg>
